<svg viewBox="0 0 960 420" xmlns="http://www.w3.org/2000/svg">
  <defs>
    <pattern id="dots" width="22" height="22" patternUnits="userSpaceOnUse">
      <circle cx="1" cy="1" r="0.9" fill="#E3E2DC"/>
    </pattern>
  </defs>
  <rect width="100%" height="100%" fill="#f5f4ed"/>
  <rect width="100%" height="100%" fill="url(#dots)" opacity="0.55"/>
  <text x="48" y="36" fill="#1B365D" font-size="14" font-weight="600" font-family="JetBrains Mono" letter-spacing="3">FIGURE  1</text>
  <text x="184" y="36" fill="#504e49" font-size="14" font-family="JetBrains Mono" letter-spacing="3">MISE PROJECT MODEL</text>
  <line x1="48" y1="52" x2="912" y2="52" stroke="#1B365D" stroke-width="1"/>

  <line x1="208" y1="208" x2="288" y2="208" stroke="#504e49" stroke-width="2"/>
  <path d="M280 204 L288 208 L280 212" fill="none" stroke="#504e49" stroke-width="2" stroke-linecap="round"/>
  <line x1="448" y1="208" x2="528" y2="112" stroke="#1B365D" stroke-width="2"/>
  <path d="M520 116 L528 112 L524 120" fill="none" stroke="#1B365D" stroke-width="2" stroke-linecap="round"/>
  <line x1="448" y1="208" x2="528" y2="208" stroke="#1B365D" stroke-width="2"/>
  <path d="M520 204 L528 208 L520 212" fill="none" stroke="#1B365D" stroke-width="2" stroke-linecap="round"/>
  <line x1="448" y1="208" x2="528" y2="304" stroke="#1B365D" stroke-width="2"/>
  <path d="M524 296 L528 304 L520 300" fill="none" stroke="#1B365D" stroke-width="2" stroke-linecap="round"/>
  <line x1="688" y1="112" x2="768" y2="112" stroke="#504e49" stroke-width="2"/>
  <path d="M760 108 L768 112 L760 116" fill="none" stroke="#504e49" stroke-width="2" stroke-linecap="round"/>
  <line x1="688" y1="208" x2="768" y2="208" stroke="#504e49" stroke-width="2"/>
  <path d="M760 204 L768 208 L760 212" fill="none" stroke="#504e49" stroke-width="2" stroke-linecap="round"/>
  <line x1="688" y1="304" x2="768" y2="304" stroke="#504e49" stroke-width="2"/>
  <path d="M760 300 L768 304 L760 308" fill="none" stroke="#504e49" stroke-width="2" stroke-linecap="round"/>

  <rect x="48" y="176" width="160" height="64" rx="8" fill="#E9E8E1" stroke="#6b6a64" stroke-width="1.5"/>
  <text x="68" y="198" fill="#6b6a64" font-size="14" font-family="JetBrains Mono" letter-spacing="2">PROJECT</text>
  <text font-family="TsangerJinKai02" x="128" y="224" fill="#141413" font-size="24" font-weight="600" text-anchor="middle">项目目录</text>

  <rect x="288" y="168" width="160" height="80" rx="8" fill="#EEF2F7" stroke="#1B365D" stroke-width="2"/>
  <text x="308" y="192" fill="#1B365D" font-size="14" font-family="JetBrains Mono" letter-spacing="2">CONFIG</text>
  <text font-family="TsangerJinKai02" x="368" y="224" fill="#141413" font-size="24" font-weight="600" text-anchor="middle">mise.toml</text>

  <rect x="528" y="80" width="160" height="64" rx="8" fill="#faf9f5" stroke="#141413" stroke-width="1.5"/>
  <text x="548" y="102" fill="#504e49" font-size="14" font-family="JetBrains Mono" letter-spacing="2">TOOLS</text>
  <text font-family="TsangerJinKai02" x="608" y="128" fill="#141413" font-size="24" font-weight="600" text-anchor="middle">运行时与 CLI</text>

  <rect x="528" y="176" width="160" height="64" rx="8" fill="#faf9f5" stroke="#141413" stroke-width="1.5"/>
  <text x="548" y="198" fill="#504e49" font-size="14" font-family="JetBrains Mono" letter-spacing="2">ENV</text>
  <text font-family="TsangerJinKai02" x="608" y="224" fill="#141413" font-size="24" font-weight="600" text-anchor="middle">环境变量</text>

  <rect x="528" y="272" width="160" height="64" rx="8" fill="#faf9f5" stroke="#141413" stroke-width="1.5"/>
  <text x="548" y="294" fill="#504e49" font-size="14" font-family="JetBrains Mono" letter-spacing="2">TASKS</text>
  <text font-family="TsangerJinKai02" x="608" y="320" fill="#141413" font-size="24" font-weight="600" text-anchor="middle">工程任务</text>

  <rect x="768" y="80" width="144" height="64" rx="8" fill="#EEEDE6" stroke="#B2B1AC" stroke-width="1.5"/>
  <text font-family="TsangerJinKai02" x="840" y="106" fill="#141413" font-size="22" font-weight="600" text-anchor="middle">activate</text>
  <text font-family="TsangerJinKai02" x="840" y="128" fill="#504e49" font-size="15" text-anchor="middle">交互 Shell</text>

  <rect x="768" y="176" width="144" height="64" rx="8" fill="#EEEDE6" stroke="#B2B1AC" stroke-width="1.5"/>
  <text font-family="TsangerJinKai02" x="840" y="202" fill="#141413" font-size="22" font-weight="600" text-anchor="middle">exec</text>
  <text font-family="TsangerJinKai02" x="840" y="224" fill="#504e49" font-size="15" text-anchor="middle">脚本与 CI</text>

  <rect x="768" y="272" width="144" height="64" rx="8" fill="#EEEDE6" stroke="#B2B1AC" stroke-width="1.5"/>
  <text font-family="TsangerJinKai02" x="840" y="298" fill="#141413" font-size="22" font-weight="600" text-anchor="middle">run</text>
  <text font-family="TsangerJinKai02" x="840" y="320" fill="#504e49" font-size="15" text-anchor="middle">标准动作</text>

  <text font-family="TsangerJinKai02" x="48" y="388" fill="#504e49" font-size="17">一份项目配置同时约束工具、环境变量和任务。交互 Shell、脚本和 CI 只是不同入口。</text>
</svg>
